<svg xmlns="http://www.w3.org/2000/svg" width="50" height="50" viewBox="0 0 50 50"><circle cx="25" cy="25" r="25" fill="#fff"/><g transform="translate(2.938 4.621)"><g transform="translate(-0.008 -0.015)"><path d="M102.763,150.913a2.973,2.973,0,0,0,2.8,3.131h.177a2.972,2.972,0,1,0-2.978-3.131Z" transform="translate(-90.662 -130.666)" fill="#0033ad"/><path d="M1,165.484a.961.961,0,1,0,.906,1.012A.953.953,0,0,0,1,165.484Z" transform="translate(0.008 -146.003)" fill="#0033ad"/><path d="M90.735,11.759a.963.963,0,0,0-.871-1.718.963.963,0,0,0,.871,1.718Z" transform="translate(-78.823 -8.767)" fill="#0033ad"/><path d="M110.715,49.074a1.482,1.482,0,1,0-1.989-.659A1.485,1.485,0,0,0,110.715,49.074Z" transform="translate(-95.79 -40.822)" fill="#0033ad"/><path d="M36.432,83.966a1.224,1.224,0,1,0-.353-1.695h0A1.218,1.218,0,0,0,36.432,83.966Z" transform="translate(-31.652 -72.1)" fill="#0033ad"/><path d="M44.147,160.981a1.485,1.485,0,1,0,1.4,1.565h0A1.486,1.486,0,0,0,44.147,160.981Z" transform="translate(-37.566 -142.03)" fill="#0033ad"/><path d="M36.955,244.714a1.226,1.226,0,1,0,1.648.541h0a1.231,1.231,0,0,0-1.648-.541Z" transform="translate(-32.011 -215.793)" fill="#0033ad"/><path d="M85.055,110.868a1.743,1.743,0,1,0-.506-2.413,1.733,1.733,0,0,0,.506,2.413Z" transform="translate(-74.343 -94.989)" fill="#0033ad"/><path d="M241.444,48.665a1.487,1.487,0,1,0-.424-2.06h0a1.471,1.471,0,0,0,.424,2.06Z" transform="translate(-212.429 -40.53)" fill="#0033ad"/><path d="M269.059,11.324a.961.961,0,1,0-.282-1.342.991.991,0,0,0,.282,1.342Z" transform="translate(-237.008 -8.427)" fill="#0033ad"/><path d="M224.894,147.863a2.971,2.971,0,1,0-.33,5.932h.165a2.968,2.968,0,0,0,.165-5.932Z" transform="translate(-195.656 -130.453)" fill="#0033ad"/><path d="M132.7,100.7a2.974,2.974,0,1,0,1.318-4,2.978,2.978,0,0,0-1.318,4Z" transform="translate(-116.795 -85.032)" fill="#0033ad"/><path d="M319.612,83.473a1.224,1.224,0,1,0-1.66-.541,1.245,1.245,0,0,0,1.66.541Z" transform="translate(-280.416 -71.607)" fill="#0033ad"/><path d="M261.777,107.438a1.745,1.745,0,1,0,2.342.777A1.745,1.745,0,0,0,261.777,107.438Z" transform="translate(-230.114 -94.631)" fill="#0033ad"/><path d="M177.841,2.435a1.24,1.24,0,0,0,1.295-1.153,1.227,1.227,0,0,0-2.448-.153,1.244,1.244,0,0,0,1.153,1.306Z" transform="translate(-155.888 0.015)" fill="#0033ad"/><path d="M174.032,59.959a1.745,1.745,0,1,0-1.648-1.836,1.733,1.733,0,0,0,1.648,1.836Z" transform="translate(-152.091 -49.824)" fill="#0033ad"/><path d="M87.042,212.919a1.745,1.745,0,1,0-2.342-.777A1.745,1.745,0,0,0,87.042,212.919Z" transform="translate(-74.565 -184.939)" fill="#0033ad"/><path d="M192.367,97.742a2.971,2.971,0,1,0,2.484-1.342A2.963,2.963,0,0,0,192.367,97.742Z" transform="translate(-169.297 -85.052)" fill="#0033ad"/><path d="M197.706,201.116a2.971,2.971,0,1,0-1.318,3.99h0a2.957,2.957,0,0,0,1.33-3.967C197.718,201.128,197.718,201.128,197.706,201.116Z" transform="translate(-169.468 -175.996)" fill="#0033ad"/><path d="M263.762,209.449a1.743,1.743,0,1,0,.506,2.413,1.732,1.732,0,0,0-.506-2.413Z" transform="translate(-230.334 -184.542)" fill="#0033ad"/><path d="M310.147,161.947a1.485,1.485,0,1,0-1.565,1.4h0A1.494,1.494,0,0,0,310.147,161.947Z" transform="translate(-271.022 -141.5)" fill="#0033ad"/><path d="M359.7,164.684a.961.961,0,1,0,.906,1.012A.969.969,0,0,0,359.7,164.684Z" transform="translate(-316.472 -145.297)" fill="#0033ad"/><path d="M320.213,244.218a1.224,1.224,0,1,0,.353,1.695,1.218,1.218,0,0,0-.353-1.695Z" transform="translate(-280.852 -215.297)" fill="#0033ad"/><path d="M91.441,320.711a.96.96,0,1,0,.271,1.33h0A.945.945,0,0,0,91.441,320.711Z" transform="translate(-79.364 -282.821)" fill="#0033ad"/><path d="M269.864,320.3a.963.963,0,0,0,.871,1.718.963.963,0,0,0-.871-1.718Z" transform="translate(-237.636 -282.508)" fill="#0033ad"/><path d="M138.007,204.187a2.976,2.976,0,1,0-4.12.859,2.985,2.985,0,0,0,4.12-.859Z" transform="translate(-116.937 -176.09)" fill="#0033ad"/><path d="M111.241,275.581a1.487,1.487,0,1,0,.424,2.06h0A1.473,1.473,0,0,0,111.241,275.581Z" transform="translate(-96.116 -242.929)" fill="#0033ad"/><path d="M177.673,325.687a1.226,1.226,0,1,0,1.153,1.306,1.24,1.24,0,0,0-1.153-1.306Z" transform="translate(-155.615 -287.35)" fill="#0033ad"/><path d="M173.712,260.375a1.745,1.745,0,1,0,1.648,1.836,1.733,1.733,0,0,0-1.648-1.836Z" transform="translate(-151.642 -229.724)" fill="#0033ad"/><path d="M242.116,275.187a1.487,1.487,0,1,0,2.013.659,1.487,1.487,0,0,0-2.013-.659Z" transform="translate(-212.902 -242.653)" fill="#0033ad"/></g></g></svg>
