<svg width="25" height="24" viewBox="0 0 25 24" fill="none" xmlns="http://www.w3.org/2000/svg">
<path d="M12.4041 14.2458C13.5895 14.2458 14.5504 13.2848 14.5504 12.0994C14.5504 10.9141 13.5895 9.95312 12.4041 9.95312C11.2187 9.95312 10.2578 10.9141 10.2578 12.0994C10.2578 13.2848 11.2187 14.2458 12.4041 14.2458Z" fill="white"/>
<path d="M15.0839 6.82812H9.71814C8.93767 6.82812 8.25475 7.07202 7.81573 7.51104C7.37671 7.95006 7.13281 8.63298 7.13281 9.41346V14.7792C7.13281 15.5597 7.37671 16.2426 7.86451 16.7304C8.35231 17.1694 8.98645 17.4133 9.76692 17.4133H15.0839C15.8644 17.4133 16.5473 17.1694 16.9863 16.7304C17.4741 16.2914 17.718 15.6085 17.718 14.828V9.46224C17.718 8.68176 17.4741 8.04762 17.0351 7.55982C16.5473 7.07202 15.9132 6.82812 15.0839 6.82812ZM12.401 15.4134C10.5474 15.4134 9.08401 13.9012 9.08401 12.0963C9.08401 10.2427 10.5962 8.77932 12.401 8.77932C14.2059 8.77932 15.7668 10.2427 15.7668 12.0963C15.7668 13.95 14.2547 15.4134 12.401 15.4134ZM15.8644 9.41346C15.4254 9.41346 15.0839 9.072 15.0839 8.63298C15.0839 8.19396 15.4254 7.8525 15.8644 7.8525C16.3034 7.8525 16.6449 8.19396 16.6449 8.63298C16.6449 9.072 16.3034 9.41346 15.8644 9.41346Z" fill="white"/>
<path d="M12.4998 0C5.86578 0 0.5 5.36578 0.5 11.9998C0.5 18.6339 5.86578 23.9997 12.4998 23.9997C19.1339 23.9997 24.4997 18.6339 24.4997 11.9998C24.5485 5.36578 19.1339 0 12.4998 0ZM18.89 14.8291C18.89 15.951 18.4998 16.9266 17.8168 17.6095C17.1339 18.2924 16.1583 18.6339 15.0852 18.6339H9.76817C8.69501 18.6339 7.71941 18.2924 7.0365 17.6095C6.3048 16.9266 5.96334 15.951 5.96334 14.8291V9.46329C5.96334 7.21941 7.47551 5.65846 9.76817 5.65846H15.1339C16.2559 5.65846 17.1827 6.0487 17.8656 6.73162C18.5485 7.41453 18.89 8.34135 18.89 9.46329V14.8291Z" fill="white"/>
</svg>
