<svg width="25" height="24" viewBox="0 0 25 24" fill="none" xmlns="http://www.w3.org/2000/svg">
<path fill-rule="evenodd" clip-rule="evenodd" d="M21.4239 0H3.5761C1.8859 0 0.5 1.38605 0.5 3.07605V20.9239C0.5 22.6139 1.8859 24 3.5761 24H21.4238C23.1143 24 24.5 22.6139 24.5 20.924V3.07605C24.5 1.38605 23.1143 0 21.4239 0ZM8.75 11.5906V19H5.5V12.1434V9.65H8.75V11.5906ZM7.1185 8.2564C6.21435 8.2564 5.4807 7.5233 5.4807 6.6186C5.4807 5.71375 6.21435 4.98155 7.1185 4.98155C8.0239 4.98155 8.75685 5.7138 8.75685 6.6186C8.75685 7.5233 8.02395 8.2564 7.1185 8.2564ZM19.5 13.9V19H16.7V14.4584C16.7 13.3708 16.5823 11.9721 15.0918 11.9721C13.5787 11.9721 13.35 13.1561 13.35 14.38V19H10.65V11.456V9.65H13.25V10.9H13.2777C13.6655 10.2 14.6156 9.649 16.0303 9.649C18.4139 9.649 19.2239 10.7761 19.4455 12.5396C19.4981 12.9535 19.5184 13.4 19.5184 13.9H19.5Z" fill="white"/>
</svg>
