<svg width="25" height="24" viewBox="0 0 25 24" fill="none" xmlns="http://www.w3.org/2000/svg">
<g clip-path="url(#clip0_1904_53592)">
<path d="M12.5 0C5.87258 0 0.5 5.37258 0.5 12C0.5 18.6274 5.87258 24 12.5 24C19.1274 24 24.5 18.6274 24.5 12C24.5 5.37258 19.1274 0 12.5 0ZM18.7371 7.59075L16.6058 17.7656C16.58 17.8887 16.5237 18.0033 16.4421 18.0989C16.3605 18.1946 16.2561 18.2681 16.1386 18.3129C16.0211 18.3577 15.8942 18.3722 15.7697 18.3551C15.6451 18.3381 15.5268 18.29 15.4257 18.2153L12.3255 15.9249L10.4473 17.6968C10.4228 17.72 10.3938 17.7381 10.3622 17.75C10.3305 17.7618 10.2968 17.7673 10.263 17.766C10.2293 17.7647 10.1961 17.7567 10.1654 17.7425C10.1348 17.7282 10.1073 17.708 10.0845 17.683L10.0442 17.6387L10.3705 14.4805L16.2526 9.10622C16.2817 9.07969 16.2998 9.04321 16.3033 9.004C16.3068 8.96478 16.2955 8.92567 16.2716 8.89438C16.2477 8.86309 16.2129 8.8419 16.1742 8.83497C16.1354 8.82805 16.0955 8.8359 16.0622 8.85699L8.53977 13.6181L5.3 12.53C5.21386 12.5011 5.13878 12.4462 5.08506 12.3729C5.03135 12.2996 5.00163 12.2115 4.99999 12.1206C4.99835 12.0297 5.02486 11.9406 5.07588 11.8654C5.12691 11.7902 5.19996 11.7326 5.285 11.7006L17.9609 6.9255C18.0587 6.8887 18.1646 6.87885 18.2675 6.89697C18.3704 6.91509 18.4665 6.96052 18.5458 7.02851C18.6252 7.0965 18.6848 7.18455 18.7184 7.28345C18.7521 7.38236 18.7585 7.48849 18.7371 7.59075Z" fill="white"/>
</g>
<defs>
<clipPath id="clip0_1904_53592">
<rect width="24" height="24" fill="white" transform="translate(0.5)"/>
</clipPath>
</defs>
</svg>
