<svg width="25" height="24" viewBox="0 0 25 24" fill="none" xmlns="http://www.w3.org/2000/svg">
<path fill-rule="evenodd" clip-rule="evenodd" d="M12.5 0C19.123 0 24.5 5.37703 24.5 12C24.5 18.623 19.123 24 12.5 24C5.87703 24 0.5 18.623 0.5 12C0.5 5.37703 5.87703 0 12.5 0ZM10.3864 18.3824C15.6965 18.3824 18.6 13.9822 18.6 10.1688C18.6 10.0431 18.6 9.91739 18.594 9.79763C19.1567 9.39056 19.6476 8.88169 20.0367 8.301C19.5219 8.52848 18.9651 8.68416 18.3785 8.75597C18.9771 8.39677 19.4321 7.83403 19.6476 7.15758C19.0909 7.48683 18.4743 7.72627 17.8157 7.85798C17.2889 7.29525 16.5406 6.94805 15.7085 6.94805C14.116 6.94805 12.8229 8.24114 12.8229 9.83358C12.8229 10.0611 12.8469 10.2825 12.9007 10.4921C10.5001 10.3724 8.37486 9.22294 6.95009 7.47483C6.70461 7.89989 6.56094 8.39677 6.56094 8.92359C6.56094 9.92334 7.06981 10.8094 7.84808 11.3242C7.37511 11.3122 6.93209 11.1805 6.54298 10.965V11.001C6.54298 12.4018 7.53673 13.5632 8.85978 13.8326C8.62034 13.8984 8.36291 13.9344 8.09952 13.9344C7.91389 13.9344 7.73431 13.9164 7.55473 13.8805C7.91989 15.0299 8.9855 15.8621 10.2487 15.886C9.26089 16.6583 8.0157 17.1193 6.6627 17.1193C6.42922 17.1193 6.20173 17.1073 5.97425 17.0774C7.23744 17.9035 8.75802 18.3824 10.3864 18.3824V18.3824Z" fill="white"/>
</svg>
